<svg xmlns="http://www.w3.org/2000/svg" height="32" viewBox="0 0 16 16" width="32">
	<path fill="white" fill-rule="evenodd" d="M 8 0 C 3.58 0 0 3.58 0 8 C 0 11.54 2.29 14.53 5.47 15.59 C 5.87 15.66 6.02 15.42 6.02 15.21 C 6.02 15.02 6.01 14.39 6.01 13.72 C 4 14.09 3.48 13.23 3.32 12.78 C 3.23 12.55 2.84 11.84 2.5 11.65 C 2.22 11.5 1.82 11.13 2.49 11.12 C 3.12 11.11 3.57 11.7 3.72 11.94 C 4.44 13.15 5.59 12.81 6.05 12.6 C 6.12 12.08 6.33 11.73 6.56 11.53 C 4.78 11.33 2.92 10.64 2.92 7.58 C 2.92 6.71 3.452 3.88 4.808 1.864 L 6.02 4.13 C 6.66 3.95 7.34 3.86 8.02 3.86 C 8.7 3.86 9.345 3.95 9.985 4.13 L 10.88 1.723 C 12.837 3.635 13.12 6.7 13.12 7.58 C 13.12 10.65 11.25 11.33 9.47 11.53 C 9.76 11.78 10.01 12.26 10.01 13.01 C 10.01 14.08 10 14.94 10 15.21 C 10 15.42 10.15 15.67 10.55 15.59 C 13.806 14.491 15.999 11.437 16 8 C 16 3.58 12.42 0 8 0 Z M 10.221 13.544 L 11.24 12.036 C 11.907 13.135 12.253 11.566 11.867 11.358 C 11.483 11.148 13.772 11.514 13.025 13.576 C 13.025 13.576 12.159 12.106 11.938 13.464 C 11.881 13.814 11.722 11.881 10.221 13.544 Z"></path>
</svg>
