<svg viewBox="0 0 46.14 46.14" xmlns="http://www.w3.org/2000/svg">
	<rect x="209.757" y="79.731" width="28.32" height="28.32" style="stroke-width: 4.3px; fill: none; stroke: white" transform="matrix(0.707107, -0.707107, 0.707107, 0.707107, -201.650223, 115.017204)"></rect>
	<rect x="224.96" y="95.215" width="8.554" height="4.1" style="fill: white" transform="matrix(0.707107, -0.707107, 0.707107, 0.707107, -216.713791, 114.614403)"></rect>
	<path style="fill: white" d="M 16.529 16.244 L 23.441 9.204 L 26.201 12.012 L 21.968 16.416 L 25.423 19.871 L 18.859 26.607 L 26.19 34.055 L 23.296 36.958 L 13.246 26.607 L 20.068 19.698 L 16.529 16.244 Z"></path>
	<polygon style="fill: white" points="26.644 26.688 33.079 20.473 36.441 23.94 33.451 26.819 32.654 25.983 32.182 26.443 33.002 27.32 30.09 30.228"></polygon>
	<polygon style="fill: white" points="23.322 16.481 26.91 12.765 29.746 15.626 29.026 16.328 32.435 19.796 25.456 26.599 29.528 30.801 26.911 33.387 20.219 26.631 26.749 19.94"></polygon>
</svg>
